<svg xmlns="http://www.w3.org/2000/svg" width="418.634" height="418.634" viewBox="0 0 418.634 418.634">
  <g id="Group_28" data-name="Group 28" transform="translate(-391.662 -340.192)">
    <path id="Path_26" data-name="Path 26" d="M.317,0Q.16,80.584,0,161.17c-.045,23.239,2.258,43.477,14.458,63.589a83.726,83.726,0,0,0,46.986,36.576,83.56,83.56,0,0,0,70.87-11.524,83.561,83.561,0,0,0,34.832-62.786c.3-5.477.028-11.107-2.019-16.2a24.941,24.941,0,0,0-20.621-15.212c.631,12.9,1.238,26.052-2.085,38.537-6.313,23.722-27.983,42.75-52.4,45.267s-49.83-12.082-59.345-34.711c-5.691-13.537-5.871-28.661-5.964-43.346l-.829-129.9c-.036-5.546-.1-11.229-2.064-16.414A23.931,23.931,0,0,0,.317,0Z" transform="translate(502.662 577.914) rotate(-47)" fill="#fff"/>
    <path id="Path_27" data-name="Path 27" d="M.317,0Q.16,80.584,0,161.17c-.045,23.239,2.258,43.477,14.458,63.589a83.726,83.726,0,0,0,46.986,36.576,83.56,83.56,0,0,0,70.871-11.524,83.561,83.561,0,0,0,34.832-62.786c.3-5.477.028-11.107-2.019-16.2a24.941,24.941,0,0,0-20.621-15.212c.631,12.9,1.238,26.052-2.085,38.537-6.313,23.722-27.983,42.75-52.4,45.267s-49.83-12.082-59.345-34.711c-5.691-13.537-5.871-28.661-5.964-43.346l-.829-129.9c-.036-5.546-.1-11.229-2.064-16.414A23.931,23.931,0,0,0,.317,0Z" transform="translate(699.296 521.103) rotate(133)" fill="#fff"/>
    <path id="Path_28" data-name="Path 28" d="M.317,0Q.16,80.584,0,161.17c-.045,23.239,2.258,43.477,14.458,63.589a83.726,83.726,0,0,0,46.986,36.576,83.56,83.56,0,0,0,70.87-11.524,83.561,83.561,0,0,0,34.832-62.786c.3-5.477.028-11.107-2.019-16.2a24.941,24.941,0,0,0-20.621-15.212c.631,12.9,1.238,26.052-2.085,38.537-6.313,23.722-27.983,42.75-52.4,45.267s-49.83-12.082-59.345-34.711c-5.691-13.537-5.871-28.661-5.964-43.346l-.829-129.9c-.036-5.546-.1-11.229-2.064-16.414A23.931,23.931,0,0,0,.317,0Z" transform="translate(572.573 451.192) rotate(43)" fill="#fff"/>
    <path id="Path_29" data-name="Path 29" d="M.317,0Q.16,80.584,0,161.17c-.045,23.239,2.258,43.477,14.458,63.589a83.726,83.726,0,0,0,46.986,36.576,83.56,83.56,0,0,0,70.871-11.524,83.561,83.561,0,0,0,34.832-62.786c.3-5.477.028-11.107-2.019-16.2a24.941,24.941,0,0,0-20.621-15.212c.631,12.9,1.238,26.052-2.085,38.537-6.313,23.722-27.983,42.75-52.4,45.267s-49.83-12.082-59.345-34.711c-5.691-13.537-5.871-28.661-5.964-43.346l-.829-129.9c-.036-5.546-.1-11.229-2.064-16.414A23.931,23.931,0,0,0,.317,0Z" transform="translate(629.385 647.825) rotate(-137)" fill="#fff"/>
  </g>
</svg>
